<svg xmlns="http://www.w3.org/2000/svg" width="860" height="370" viewBox="0 0 860 370"><rect width="860" height="370" rx="10" fill="#101014"></rect><text x="32" y="40" font-family="ui-monospace,&#39;SF Mono&#39;,Menlo,Consolas,monospace" font-size="16" fill="#e8e8e8" text-anchor="start" font-weight="bold">Cache reads vs fresh input</text><rect x="120.00" y="54.00" width="12.00" height="12.00" fill="#4a4a54" rx="2"></rect><text x="140" y="65" font-family="ui-monospace,&#39;SF Mono&#39;,Menlo,Consolas,monospace" font-size="11" fill="#9a9aa2" text-anchor="start" font-weight="normal">cache read, ~10× cheaper</text><rect x="410.00" y="54.00" width="12.00" height="12.00" fill="#32d74b" rx="2"></rect><text x="430" y="65" font-family="ui-monospace,&#39;SF Mono&#39;,Menlo,Consolas,monospace" font-size="11" fill="#9a9aa2" text-anchor="start" font-weight="normal">fresh input</text><line x1="90.00" y1="300.00" x2="810.00" y2="300.00" stroke="#26262c" stroke-width="1.0"></line><text x="80" y="304.0" font-family="ui-monospace,&#39;SF Mono&#39;,Menlo,Consolas,monospace" font-size="11" fill="#9a9aa2" text-anchor="end" font-weight="normal">0</text><line x1="90.00" y1="230.00" x2="810.00" y2="230.00" stroke="#26262c" stroke-width="1.0"></line><text x="80" y="234.0" font-family="ui-monospace,&#39;SF Mono&#39;,Menlo,Consolas,monospace" font-size="11" fill="#9a9aa2" text-anchor="end" font-weight="normal">27k</text><line x1="90.00" y1="160.00" x2="810.00" y2="160.00" stroke="#26262c" stroke-width="1.0"></line><text x="80" y="164.0" font-family="ui-monospace,&#39;SF Mono&#39;,Menlo,Consolas,monospace" font-size="11" fill="#9a9aa2" text-anchor="end" font-weight="normal">53k</text><line x1="90.00" y1="90.00" x2="810.00" y2="90.00" stroke="#26262c" stroke-width="1.0"></line><text x="80" y="94.0" font-family="ui-monospace,&#39;SF Mono&#39;,Menlo,Consolas,monospace" font-size="11" fill="#9a9aa2" text-anchor="end" font-weight="normal">80k</text><rect x="120.00" y="300.00" width="44.00" height="0.00" fill="#4a4a54" rx="2"></rect><rect x="120.00" y="203.55" width="44.00" height="96.45" fill="#32d74b" rx="2"></rect><text x="142.0" y="320" font-family="ui-monospace,&#39;SF Mono&#39;,Menlo,Consolas,monospace" font-size="11" fill="#9a9aa2" text-anchor="middle" font-weight="normal">1</text><rect x="188.00" y="203.22" width="44.00" height="96.78" fill="#4a4a54" rx="2"></rect><rect x="188.00" y="200.25" width="44.00" height="2.97" fill="#32d74b" rx="2"></rect><text x="210.0" y="320" font-family="ui-monospace,&#39;SF Mono&#39;,Menlo,Consolas,monospace" font-size="11" fill="#9a9aa2" text-anchor="middle" font-weight="normal">2</text><rect x="256.00" y="196.83" width="44.00" height="103.17" fill="#4a4a54" rx="2"></rect><rect x="256.00" y="192.29" width="44.00" height="4.54" fill="#32d74b" rx="2"></rect><text x="278.0" y="320" font-family="ui-monospace,&#39;SF Mono&#39;,Menlo,Consolas,monospace" font-size="11" fill="#9a9aa2" text-anchor="middle" font-weight="normal">3</text><rect x="324.00" y="190.29" width="44.00" height="109.71" fill="#4a4a54" rx="2"></rect><rect x="324.00" y="186.61" width="44.00" height="3.69" fill="#32d74b" rx="2"></rect><text x="346.0" y="320" font-family="ui-monospace,&#39;SF Mono&#39;,Menlo,Consolas,monospace" font-size="11" fill="#9a9aa2" text-anchor="middle" font-weight="normal">4</text><rect x="392.00" y="182.90" width="44.00" height="117.10" fill="#4a4a54" rx="2"></rect><rect x="392.00" y="179.93" width="44.00" height="2.97" fill="#32d74b" rx="2"></rect><text x="414.0" y="320" font-family="ui-monospace,&#39;SF Mono&#39;,Menlo,Consolas,monospace" font-size="11" fill="#9a9aa2" text-anchor="middle" font-weight="normal">5</text><rect x="460.00" y="173.73" width="44.00" height="126.27" fill="#4a4a54" rx="2"></rect><rect x="460.00" y="171.12" width="44.00" height="2.61" fill="#32d74b" rx="2"></rect><text x="482.0" y="320" font-family="ui-monospace,&#39;SF Mono&#39;,Menlo,Consolas,monospace" font-size="11" fill="#9a9aa2" text-anchor="middle" font-weight="normal">6</text><rect x="528.00" y="167.41" width="44.00" height="132.59" fill="#4a4a54" rx="2"></rect><rect x="528.00" y="163.98" width="44.00" height="3.43" fill="#32d74b" rx="2"></rect><text x="550.0" y="320" font-family="ui-monospace,&#39;SF Mono&#39;,Menlo,Consolas,monospace" font-size="11" fill="#9a9aa2" text-anchor="middle" font-weight="normal">7</text><rect x="596.00" y="162.90" width="44.00" height="137.10" fill="#4a4a54" rx="2"></rect><rect x="596.00" y="159.31" width="44.00" height="3.59" fill="#32d74b" rx="2"></rect><text x="618.0" y="320" font-family="ui-monospace,&#39;SF Mono&#39;,Menlo,Consolas,monospace" font-size="11" fill="#9a9aa2" text-anchor="middle" font-weight="normal">8</text><rect x="664.00" y="161.42" width="44.00" height="138.58" fill="#4a4a54" rx="2"></rect><rect x="664.00" y="158.04" width="44.00" height="3.38" fill="#32d74b" rx="2"></rect><text x="686.0" y="320" font-family="ui-monospace,&#39;SF Mono&#39;,Menlo,Consolas,monospace" font-size="11" fill="#9a9aa2" text-anchor="middle" font-weight="normal">9</text><rect x="732.00" y="134.60" width="44.00" height="165.40" fill="#4a4a54" rx="2"></rect><rect x="732.00" y="131.12" width="44.00" height="3.48" fill="#32d74b" rx="2"></rect><text x="754.0" y="320" font-family="ui-monospace,&#39;SF Mono&#39;,Menlo,Consolas,monospace" font-size="11" fill="#9a9aa2" text-anchor="middle" font-weight="normal">10</text><text x="450.0" y="340" font-family="ui-monospace,&#39;SF Mono&#39;,Menlo,Consolas,monospace" font-size="11" fill="#9a9aa2" text-anchor="middle" font-weight="normal">turn</text><text x="120" y="104.0" font-family="ui-monospace,&#39;SF Mono&#39;,Menlo,Consolas,monospace" font-size="12" fill="#9a9aa2" text-anchor="start" font-weight="normal">turn 1 is a cold start; 98% cached by turn 10 — if the prefix stays byte-stable</text></svg>
